<svg xmlns="http://www.w3.org/2000/svg" viewBox="0 0 1024 1024" fill="none">
  <rect x="64" y="64" width="896" height="896" rx="220" fill="#D7CEC3"/>
  <rect x="84" y="80" width="856" height="864" rx="208" fill="#F6F1E8"/>
  <rect x="65.5" y="65.5" width="893" height="893" rx="218.5" stroke="#FFFFFF" stroke-opacity="0.78" stroke-width="3"/>

  <circle cx="512" cy="528" r="300" fill="#1C318E" fill-opacity="0.14"/>
  <circle cx="512" cy="508" r="292" fill="#4A9BFF"/>
  <circle cx="512" cy="508" r="230" fill="#2344DB"/>
  <circle cx="512" cy="508" r="230" stroke="#BDF7FF" stroke-opacity="0.42" stroke-width="18"/>
  <path d="M344 340C404 286 498 262 590 280" stroke="#D8FBFF" stroke-opacity="0.72" stroke-width="26" stroke-linecap="round"/>
  <path d="M692 446C712 486 718 528 708 578" stroke="#D8FBFF" stroke-opacity="0.22" stroke-width="20" stroke-linecap="round"/>

  <g fill="#F6F1E8">
    <rect x="408" y="336" width="62" height="190" rx="31"/>
    <rect x="554" y="336" width="62" height="190" rx="31"/>
    <circle cx="512" cy="642" r="46"/>
  </g>

  <g fill="#0F245F" fill-opacity="0.24">
    <rect x="420" y="356" width="38" height="150" rx="19"/>
    <rect x="566" y="356" width="38" height="150" rx="19"/>
    <circle cx="512" cy="642" r="30"/>
  </g>
</svg>
